<?xml version="1.0" encoding="UTF-8" standalone="no"?><svg xmlns="http://www.w3.org/2000/svg" xmlns:xlink="http://www.w3.org/1999/xlink" contentScriptType="application/ecmascript" contentStyleType="text/css" height="618px" preserveAspectRatio="none" style="width:1020px;height:618px;" version="1.1" viewBox="0 0 1020 618" width="1020px" zoomAndPan="magnify"><defs><filter height="300%" id="f1hqu2sr8kdya7" width="300%" x="-1" y="-1"><feGaussianBlur result="blurOut" stdDeviation="2.0"/><feColorMatrix in="blurOut" result="blurOut2" type="matrix" values="0 0 0 0 0 0 0 0 0 0 0 0 0 0 0 0 0 0 .4 0"/><feOffset dx="4.0" dy="4.0" in="blurOut2" result="blurOut3"/><feBlend in="SourceGraphic" in2="blurOut3" mode="normal"/></filter></defs><g><!--MD5=[6d3afe2e29c99f1e23df872cd8f8d252]
cluster com.affinitynow.app--><polygon fill="#FFFFFF" filter="url(#f1hqu2sr8kdya7)" points="16,6,161,6,168,29.6094,1003,29.6094,1003,611,16,611,16,6" style="stroke:#000000;stroke-width:1.5;"/><line style="stroke:#000000;stroke-width:1.5;" x1="16" x2="168" y1="29.6094" y2="29.6094"/><text fill="#000000" font-family="sans-serif" font-size="14" font-weight="bold" lengthAdjust="spacingAndGlyphs" textLength="139" x="20" y="22.5332">com.affinitynow.app</text><!--MD5=[5d4cd377749310b66bf14896f5cd8d9b]
cluster model--><polygon fill="#FFFFFF" filter="url(#f1hqu2sr8kdya7)" points="538,50,587,50,594,73.6094,979,73.6094,979,587,538,587,538,50" style="stroke:#000000;stroke-width:1.5;"/><line style="stroke:#000000;stroke-width:1.5;" x1="538" x2="594" y1="73.6094" y2="73.6094"/><text fill="#000000" font-family="sans-serif" font-size="14" font-weight="bold" lengthAdjust="spacingAndGlyphs" textLength="43" x="542" y="66.5332">model</text><!--MD5=[c6c442252c4ecb9d9d15b38a7cdbe0d2]
cluster controler--><polygon fill="#FFFFFF" filter="url(#f1hqu2sr8kdya7)" points="40,98.5,111,98.5,118,122.1094,514,122.1094,514,253.5,40,253.5,40,98.5" style="stroke:#000000;stroke-width:1.5;"/><line style="stroke:#000000;stroke-width:1.5;" x1="40" x2="118" y1="122.1094" y2="122.1094"/><text fill="#000000" font-family="sans-serif" font-size="14" font-weight="bold" lengthAdjust="spacingAndGlyphs" textLength="65" x="44" y="115.0332">controler</text><!--MD5=[354e8650cefe639d77b0834953981666]
class Utilisateur--><rect codeLine="4" fill="#FEFECE" filter="url(#f1hqu2sr8kdya7)" height="200.1953" id="Utilisateur" style="stroke:#A80036;stroke-width:1.5;" width="185" x="644.5" y="86"/><ellipse cx="704.75" cy="102" fill="#ADD1B2" rx="11" ry="11" style="stroke:#A80036;stroke-width:1.0;"/><path d="M707.5156,97.875 Q707.6719,97.6563 707.8594,97.5469 Q708.0469,97.4375 708.2656,97.4375 Q708.6406,97.4375 708.875,97.7031 Q709.1094,97.9531 709.1094,98.5625 L709.1094,100.0156 Q709.1094,100.625 708.875,100.8906 Q708.6406,101.1563 708.2656,101.1563 Q707.9219,101.1563 707.7188,100.9531 Q707.5156,100.7656 707.4063,100.25 Q707.3594,99.8906 707.1719,99.7031 Q706.8438,99.3281 706.2344,99.1094 Q705.625,98.8906 705,98.8906 Q704.2344,98.8906 703.5938,99.2188 Q702.9688,99.5469 702.4688,100.2969 Q701.9844,101.0469 701.9844,102.0781 L701.9844,103.1719 Q701.9844,104.4063 702.875,105.2344 Q703.7656,106.0469 705.3594,106.0469 Q706.2969,106.0469 706.9531,105.7969 Q707.3438,105.6406 707.7656,105.2031 Q708.0313,104.9375 708.1719,104.8594 Q708.3281,104.7813 708.5313,104.7813 Q708.8594,104.7813 709.1094,105.0469 Q709.375,105.2969 709.375,105.6406 Q709.375,105.9844 709.0313,106.3906 Q708.5313,106.9688 707.7344,107.2969 Q706.6563,107.75 705.3594,107.75 Q703.8438,107.75 702.6406,107.125 Q701.6563,106.625 700.9688,105.5625 Q700.2813,104.4844 700.2813,103.2031 L700.2813,102.0469 Q700.2813,100.7188 700.8906,99.5781 Q701.5156,98.4219 702.6094,97.8125 Q703.7031,97.1875 704.9375,97.1875 Q705.6719,97.1875 706.3125,97.3594 Q706.9688,97.5156 707.5156,97.875 Z " fill="#000000"/><text fill="#000000" font-family="sans-serif" font-size="12" lengthAdjust="spacingAndGlyphs" textLength="56" x="725.25" y="106.9102">Utilisateur</text><line style="stroke:#A80036;stroke-width:1.5;" x1="645.5" x2="828.5" y1="118" y2="118"/><ellipse cx="655.5" cy="129" fill="none" rx="3" ry="3" style="stroke:#038048;stroke-width:1.0;"/><text fill="#000000" font-family="sans-serif" font-size="11" lengthAdjust="spacingAndGlyphs" textLength="69" x="664.5" y="133.4189">pseudo: string</text><ellipse cx="655.5" cy="142.8359" fill="none" rx="3" ry="3" style="stroke:#038048;stroke-width:1.0;"/><text fill="#000000" font-family="sans-serif" font-size="11" lengthAdjust="spacingAndGlyphs" textLength="83" x="664.5" y="147.2549">topic: Set&lt;Topic&gt;</text><ellipse cx="655.5" cy="156.6719" fill="none" rx="3" ry="3" style="stroke:#038048;stroke-width:1.0;"/><text fill="#000000" font-family="sans-serif" font-size="11" lengthAdjust="spacingAndGlyphs" textLength="78" x="664.5" y="161.0908">match: Matching</text><line style="stroke:#A80036;stroke-width:1.5;" x1="645.5" x2="828.5" y1="167.5078" y2="167.5078"/><ellipse cx="655.5" cy="178.5078" fill="#84BE84" rx="3" ry="3" style="stroke:#038048;stroke-width:1.0;"/><text fill="#000000" font-family="sans-serif" font-size="11" lengthAdjust="spacingAndGlyphs" textLength="108" x="664.5" y="182.9268">Utilisateur(nom: string)</text><ellipse cx="655.5" cy="192.3438" fill="#84BE84" rx="3" ry="3" style="stroke:#038048;stroke-width:1.0;"/><text fill="#000000" font-family="sans-serif" font-size="11" lengthAdjust="spacingAndGlyphs" textLength="92" x="664.5" y="196.7627">getPseudo(): string</text><ellipse cx="655.5" cy="206.1797" fill="#84BE84" rx="3" ry="3" style="stroke:#038048;stroke-width:1.0;"/><text fill="#000000" font-family="sans-serif" font-size="11" lengthAdjust="spacingAndGlyphs" textLength="85" x="664.5" y="210.5986">setPseudo(): void</text><ellipse cx="655.5" cy="220.0156" fill="#84BE84" rx="3" ry="3" style="stroke:#038048;stroke-width:1.0;"/><text fill="#000000" font-family="sans-serif" font-size="11" lengthAdjust="spacingAndGlyphs" textLength="82" x="664.5" y="224.4346">getTopic(): string</text><ellipse cx="655.5" cy="233.8516" fill="#84BE84" rx="3" ry="3" style="stroke:#038048;stroke-width:1.0;"/><text fill="#000000" font-family="sans-serif" font-size="11" lengthAdjust="spacingAndGlyphs" textLength="75" x="664.5" y="238.2705">setTopic(): void</text><ellipse cx="655.5" cy="247.6875" fill="#84BE84" rx="3" ry="3" style="stroke:#038048;stroke-width:1.0;"/><text fill="#000000" font-family="sans-serif" font-size="11" lengthAdjust="spacingAndGlyphs" textLength="159" x="664.5" y="252.1064">equals(user: Utilisateur): boolean</text><ellipse cx="655.5" cy="261.5234" fill="#84BE84" rx="3" ry="3" style="stroke:#038048;stroke-width:1.0;"/><text fill="#000000" font-family="sans-serif" font-size="11" lengthAdjust="spacingAndGlyphs" textLength="95" x="664.5" y="265.9424">hashcode(): integer</text><ellipse cx="655.5" cy="275.3594" fill="#84BE84" rx="3" ry="3" style="stroke:#038048;stroke-width:1.0;"/><text fill="#000000" font-family="sans-serif" font-size="11" lengthAdjust="spacingAndGlyphs" textLength="78" x="664.5" y="279.7783">toString(): string</text><!--MD5=[1d7f89d46fe5890de77e49145f8259d3]
class Topic--><rect codeLine="18" fill="#FEFECE" filter="url(#f1hqu2sr8kdya7)" height="103.3438" id="Topic" style="stroke:#A80036;stroke-width:1.5;" width="104" x="554" y="346"/><ellipse cx="587.9" cy="362" fill="#ADD1B2" rx="11" ry="11" style="stroke:#A80036;stroke-width:1.0;"/><path d="M590.6656,357.875 Q590.8219,357.6563 591.0094,357.5469 Q591.1969,357.4375 591.4156,357.4375 Q591.7906,357.4375 592.025,357.7031 Q592.2594,357.9531 592.2594,358.5625 L592.2594,360.0156 Q592.2594,360.625 592.025,360.8906 Q591.7906,361.1563 591.4156,361.1563 Q591.0719,361.1563 590.8688,360.9531 Q590.6656,360.7656 590.5563,360.25 Q590.5094,359.8906 590.3219,359.7031 Q589.9938,359.3281 589.3844,359.1094 Q588.775,358.8906 588.15,358.8906 Q587.3844,358.8906 586.7438,359.2188 Q586.1188,359.5469 585.6188,360.2969 Q585.1344,361.0469 585.1344,362.0781 L585.1344,363.1719 Q585.1344,364.4063 586.025,365.2344 Q586.9156,366.0469 588.5094,366.0469 Q589.4469,366.0469 590.1031,365.7969 Q590.4938,365.6406 590.9156,365.2031 Q591.1813,364.9375 591.3219,364.8594 Q591.4781,364.7813 591.6813,364.7813 Q592.0094,364.7813 592.2594,365.0469 Q592.525,365.2969 592.525,365.6406 Q592.525,365.9844 592.1813,366.3906 Q591.6813,366.9688 590.8844,367.2969 Q589.8063,367.75 588.5094,367.75 Q586.9938,367.75 585.7906,367.125 Q584.8063,366.625 584.1188,365.5625 Q583.4313,364.4844 583.4313,363.2031 L583.4313,362.0469 Q583.4313,360.7188 584.0406,359.5781 Q584.6656,358.4219 585.7594,357.8125 Q586.8531,357.1875 588.0875,357.1875 Q588.8219,357.1875 589.4625,357.3594 Q590.1188,357.5156 590.6656,357.875 Z " fill="#000000"/><text fill="#000000" font-family="sans-serif" font-size="12" lengthAdjust="spacingAndGlyphs" textLength="30" x="606.1" y="366.9102">Topic</text><line style="stroke:#A80036;stroke-width:1.5;" x1="555" x2="657" y1="378" y2="378"/><ellipse cx="565" cy="389" fill="none" rx="3" ry="3" style="stroke:#038048;stroke-width:1.0;"/><text fill="#000000" font-family="sans-serif" font-size="11" lengthAdjust="spacingAndGlyphs" textLength="53" x="574" y="393.4189">nom: string</text><line style="stroke:#A80036;stroke-width:1.5;" x1="555" x2="657" y1="399.8359" y2="399.8359"/><ellipse cx="565" cy="410.8359" fill="#84BE84" rx="3" ry="3" style="stroke:#038048;stroke-width:1.0;"/><text fill="#000000" font-family="sans-serif" font-size="11" lengthAdjust="spacingAndGlyphs" textLength="78" x="574" y="415.2549">this(nom: string)</text><ellipse cx="565" cy="424.6719" fill="#84BE84" rx="3" ry="3" style="stroke:#038048;stroke-width:1.0;"/><text fill="#000000" font-family="sans-serif" font-size="11" lengthAdjust="spacingAndGlyphs" textLength="77" x="574" y="429.0908">getNom(): string</text><ellipse cx="565" cy="438.5078" fill="#84BE84" rx="3" ry="3" style="stroke:#038048;stroke-width:1.0;"/><text fill="#000000" font-family="sans-serif" font-size="11" lengthAdjust="spacingAndGlyphs" textLength="70" x="574" y="442.9268">setNom(): void</text><!--MD5=[2184976f08065c351186e002aedbbc07]
class Matching--><rect codeLine="25" fill="#FEFECE" filter="url(#f1hqu2sr8kdya7)" height="61.8359" id="Matching" style="stroke:#A80036;stroke-width:1.5;" width="269" x="693.5" y="366.5"/><ellipse cx="799.25" cy="382.5" fill="#B4A7E5" rx="11" ry="11" style="stroke:#A80036;stroke-width:1.0;"/><path d="M800.2031,379.1406 L800.2031,385.7969 L801.9219,385.7969 Q802.5313,385.7969 802.7969,386.0313 Q803.0625,386.2656 803.0625,386.6563 Q803.0625,387.0313 802.7969,387.2656 Q802.5313,387.5 801.9219,387.5 L796.7813,387.5 Q796.1719,387.5 795.9063,387.2656 Q795.6406,387.0313 795.6406,386.6406 Q795.6406,386.2656 795.9063,386.0313 Q796.1719,385.7969 796.7813,385.7969 L798.5,385.7969 L798.5,379.1406 L796.7813,379.1406 Q796.1719,379.1406 795.9063,378.9063 Q795.6406,378.6719 795.6406,378.2813 Q795.6406,377.9063 795.9063,377.6719 Q796.1719,377.4375 796.7813,377.4375 L801.9219,377.4375 Q802.5313,377.4375 802.7969,377.6719 Q803.0625,377.9063 803.0625,378.2813 Q803.0625,378.6719 802.7969,378.9063 Q802.5313,379.1406 801.9219,379.1406 L800.2031,379.1406 Z " fill="#000000"/><text fill="#000000" font-family="sans-serif" font-size="12" font-style="italic" lengthAdjust="spacingAndGlyphs" textLength="49" x="819.75" y="387.4102">Matching</text><line style="stroke:#A80036;stroke-width:1.5;" x1="694.5" x2="961.5" y1="398.5" y2="398.5"/><line style="stroke:#A80036;stroke-width:1.5;" x1="694.5" x2="961.5" y1="406.5" y2="406.5"/><ellipse cx="704.5" cy="417.5" fill="#84BE84" rx="3" ry="3" style="stroke:#038048;stroke-width:1.0;"/><text fill="#000000" font-family="sans-serif" font-size="11" lengthAdjust="spacingAndGlyphs" textLength="243" x="713.5" y="421.9189">match(user1: Utilisateur, user2:Utilisateur ): double</text><!--MD5=[7265fede3da290517b0e3c2752555eb1]
class ScoreMatching--><rect codeLine="29" fill="#FEFECE" filter="url(#f1hqu2sr8kdya7)" height="61.8359" id="ScoreMatching" style="stroke:#A80036;stroke-width:1.5;" width="269" x="693.5" y="509"/><ellipse cx="783.25" cy="525" fill="#ADD1B2" rx="11" ry="11" style="stroke:#A80036;stroke-width:1.0;"/><path d="M786.0156,520.875 Q786.1719,520.6563 786.3594,520.5469 Q786.5469,520.4375 786.7656,520.4375 Q787.1406,520.4375 787.375,520.7031 Q787.6094,520.9531 787.6094,521.5625 L787.6094,523.0156 Q787.6094,523.625 787.375,523.8906 Q787.1406,524.1563 786.7656,524.1563 Q786.4219,524.1563 786.2188,523.9531 Q786.0156,523.7656 785.9063,523.25 Q785.8594,522.8906 785.6719,522.7031 Q785.3438,522.3281 784.7344,522.1094 Q784.125,521.8906 783.5,521.8906 Q782.7344,521.8906 782.0938,522.2188 Q781.4688,522.5469 780.9688,523.2969 Q780.4844,524.0469 780.4844,525.0781 L780.4844,526.1719 Q780.4844,527.4063 781.375,528.2344 Q782.2656,529.0469 783.8594,529.0469 Q784.7969,529.0469 785.4531,528.7969 Q785.8438,528.6406 786.2656,528.2031 Q786.5313,527.9375 786.6719,527.8594 Q786.8281,527.7813 787.0313,527.7813 Q787.3594,527.7813 787.6094,528.0469 Q787.875,528.2969 787.875,528.6406 Q787.875,528.9844 787.5313,529.3906 Q787.0313,529.9688 786.2344,530.2969 Q785.1563,530.75 783.8594,530.75 Q782.3438,530.75 781.1406,530.125 Q780.1563,529.625 779.4688,528.5625 Q778.7813,527.4844 778.7813,526.2031 L778.7813,525.0469 Q778.7813,523.7188 779.3906,522.5781 Q780.0156,521.4219 781.1094,520.8125 Q782.2031,520.1875 783.4375,520.1875 Q784.1719,520.1875 784.8125,520.3594 Q785.4688,520.5156 786.0156,520.875 Z " fill="#000000"/><text fill="#000000" font-family="sans-serif" font-size="12" lengthAdjust="spacingAndGlyphs" textLength="81" x="803.75" y="529.9102">ScoreMatching</text><line style="stroke:#A80036;stroke-width:1.5;" x1="694.5" x2="961.5" y1="541" y2="541"/><line style="stroke:#A80036;stroke-width:1.5;" x1="694.5" x2="961.5" y1="549" y2="549"/><ellipse cx="704.5" cy="560" fill="#84BE84" rx="3" ry="3" style="stroke:#038048;stroke-width:1.0;"/><text fill="#000000" font-family="sans-serif" font-size="11" lengthAdjust="spacingAndGlyphs" textLength="243" x="713.5" y="564.4189">match(user1: Utilisateur, user2:Utilisateur ): double</text><!--MD5=[ef071ca33a07b1cb2e0a11d53e812f92]
class UtilisateurControler--><rect codeLine="35" fill="#FEFECE" filter="url(#f1hqu2sr8kdya7)" height="103.3438" id="UtilisateurControler" style="stroke:#A80036;stroke-width:1.5;" width="442" x="56" y="134.5"/><ellipse cx="219.25" cy="150.5" fill="#ADD1B2" rx="11" ry="11" style="stroke:#A80036;stroke-width:1.0;"/><path d="M222.0156,146.375 Q222.1719,146.1563 222.3594,146.0469 Q222.5469,145.9375 222.7656,145.9375 Q223.1406,145.9375 223.375,146.2031 Q223.6094,146.4531 223.6094,147.0625 L223.6094,148.5156 Q223.6094,149.125 223.375,149.3906 Q223.1406,149.6563 222.7656,149.6563 Q222.4219,149.6563 222.2188,149.4531 Q222.0156,149.2656 221.9063,148.75 Q221.8594,148.3906 221.6719,148.2031 Q221.3438,147.8281 220.7344,147.6094 Q220.125,147.3906 219.5,147.3906 Q218.7344,147.3906 218.0938,147.7188 Q217.4688,148.0469 216.9688,148.7969 Q216.4844,149.5469 216.4844,150.5781 L216.4844,151.6719 Q216.4844,152.9063 217.375,153.7344 Q218.2656,154.5469 219.8594,154.5469 Q220.7969,154.5469 221.4531,154.2969 Q221.8438,154.1406 222.2656,153.7031 Q222.5313,153.4375 222.6719,153.3594 Q222.8281,153.2813 223.0313,153.2813 Q223.3594,153.2813 223.6094,153.5469 Q223.875,153.7969 223.875,154.1406 Q223.875,154.4844 223.5313,154.8906 Q223.0313,155.4688 222.2344,155.7969 Q221.1563,156.25 219.8594,156.25 Q218.3438,156.25 217.1406,155.625 Q216.1563,155.125 215.4688,154.0625 Q214.7813,152.9844 214.7813,151.7031 L214.7813,150.5469 Q214.7813,149.2188 215.3906,148.0781 Q216.0156,146.9219 217.1094,146.3125 Q218.2031,145.6875 219.4375,145.6875 Q220.1719,145.6875 220.8125,145.8594 Q221.4688,146.0156 222.0156,146.375 Z " fill="#000000"/><text fill="#000000" font-family="sans-serif" font-size="12" lengthAdjust="spacingAndGlyphs" textLength="107" x="239.75" y="155.4102">UtilisateurControler</text><line style="stroke:#A80036;stroke-width:1.5;" x1="57" x2="497" y1="166.5" y2="166.5"/><ellipse cx="67" cy="177.5" fill="none" rx="3" ry="3" style="stroke:#038048;stroke-width:1.0;"/><text fill="#000000" font-family="sans-serif" font-size="11" lengthAdjust="spacingAndGlyphs" textLength="99" x="76" y="181.9189">utilisateur: Utilisateur</text><line style="stroke:#A80036;stroke-width:1.5;" x1="57" x2="497" y1="188.3359" y2="188.3359"/><ellipse cx="67" cy="199.3359" fill="#84BE84" rx="3" ry="3" style="stroke:#038048;stroke-width:1.0;"/><text fill="#000000" font-family="sans-serif" font-size="11" lengthAdjust="spacingAndGlyphs" textLength="196" x="76" y="203.7549">createNewUser(): void , POST/utilisateur</text><ellipse cx="67" cy="213.1719" fill="#84BE84" rx="3" ry="3" style="stroke:#038048;stroke-width:1.0;"/><text fill="#000000" font-family="sans-serif" font-size="11" lengthAdjust="spacingAndGlyphs" textLength="416" x="76" y="217.5908">addTopicsForUserById(id: long, topics: List&lt;Topics&gt;): void , POST/utilisateur/{id}/topics</text><ellipse cx="67" cy="227.0078" fill="#84BE84" rx="3" ry="3" style="stroke:#038048;stroke-width:1.0;"/><text fill="#000000" font-family="sans-serif" font-size="11" lengthAdjust="spacingAndGlyphs" textLength="290" x="76" y="231.4268">getUserMatchingListById(id: long) , GET/utilisateur/{id}/match</text><!--MD5=[d3498455eac280fa9587508737008cb9]
reverse link Matching to ScoreMatching--><path d="M828,448.81 C828,468.92 828,491.42 828,508.91 " fill="none" id="Matching-backto-ScoreMatching" style="stroke:#A80036;stroke-width:1.0;stroke-dasharray:7.0,7.0;"/><polygon fill="none" points="821,448.64,828,428.64,835,448.64,821,448.64" style="stroke:#A80036;stroke-width:1.0;"/><!--MD5=[16ee606f6506668a77015fa4d41558e8]
link Utilisateur to Matching--><path codeLine="46" d="M784.878,297.2378 C784.878,297.2378 802.44,337.65 809.55,354.02 " fill="none" id="Utilisateur-Matching" style="stroke:#A80036;stroke-width:1.0;"/><polygon fill="#A80036" points="814.93,366.42,815.0102,356.5715,812.9366,361.8346,807.6735,359.761,814.93,366.42" style="stroke:#A80036;stroke-width:1.0;"/><line style="stroke:#A80036;stroke-width:1.0;" x1="812.9366" x2="809.755" y1="361.8346" y2="354.495"/><polygon fill="#A80036" points="780.1,286.23,778.8197,293.3265,784.878,297.2378,786.1582,290.1412,780.1,286.23" style="stroke:#A80036;stroke-width:1.0;"/><text fill="#000000" font-family="sans-serif" font-size="13" lengthAdjust="spacingAndGlyphs" textLength="7" x="804.3053" y="355.4228">1</text><!--MD5=[390fe952255c5329a38a866af10d99b9]
link Utilisateur to Topic--><path codeLine="47" d="M674.95,286.23 C663.06,305.24 651.02,324.5 640.4,341.48 " fill="none" id="Utilisateur-to-Topic" style="stroke:#A80036;stroke-width:1.0;"/><polygon fill="#A80036" points="637.74,345.75,645.907,340.2454,640.3938,341.5124,639.1268,335.9993,637.74,345.75" style="stroke:#A80036;stroke-width:1.0;"/><text fill="#000000" font-family="sans-serif" font-size="13" lengthAdjust="spacingAndGlyphs" textLength="5" x="636.6691" y="335.2167">*</text><!--MD5=[3c2cef9797c6ff9471e7855c586d85ed]
@startuml diagram

package com.affinitynow.app {
    package model {
        class Utilisateur {
            + pseudo: string
            + topic: Set<Topic>
            + match: Matching
            + Utilisateur(nom: string)
            + getPseudo(): string
            + setPseudo(): void
            + getTopic(): string
            + setTopic(): void
            + equals(user: Utilisateur): boolean
            + hashcode(): integer
            + toString(): string
        }

        class Topic {
            + nom: string
            + this(nom: string)
            + getNom(): string
            + setNom(): void
        }

        interface Matching {
            + match(user1: Utilisateur, user2:Utilisateur ): double
        }

        class ScoreMatching implements Matching {
            + match(user1: Utilisateur, user2:Utilisateur ): double
        }
    }

    package controler {
        class UtilisateurControler {
            + utilisateur: Utilisateur
            + createNewUser(): void , POST/utilisateur
            + addTopicsForUserById(id: long, topics: List<Topics>): void , POST/utilisateur/{id}/topics
            + getUserMatchingListById(id: long) , GET/utilisateur/{id}/match
        }
    }
}



Utilisateur *- -> "1" Matching
Utilisateur - -> "*" Topic

@enduml

PlantUML version 1.2020.22(Sun Dec 06 10:36:27 CET 2020)
(GPL source distribution)
Java Runtime: OpenJDK Runtime Environment
JVM: OpenJDK 64-Bit Server VM
Default Encoding: Cp1252
Language: fr
Country: FR
--></g></svg>